ffmpeg started on 2016-11-27 at 22:19:09
Report written to "Output/NVENCh264/results/ffmpeg/crowd_run_2160p50llhp3500k.log"
Command line:
Tools/ffmpeg/ffmpeg -benchmark -y -i Input/y4m/crowd_run_2160p50.y4m -c:v h264_nvenc -preset llhp -b:v 3500k -an Output/NVENCh264/encoded/crowd_run_2160p50llhp3500k.mkv
ffmpeg version N-82227-gdb23fde Copyright (c) 2000-2016 the FFmpeg developers
  built with gcc 5.4.0 (Ubuntu 5.4.0-6ubuntu1~16.04.2) 20160609
  configuration: --prefix=/home/jaroslav/ffmpeg_build --pkg-config-flags=--static --extra-cflags=-I/home/jaroslav/ffmpeg_build/include --extra-ldflags=-L/home/jaroslav/ffmpeg_build/lib --bindir=/home/jaroslav/bin --enable-gpl --enable-libass --enable-libfdk-aac --enable-libfreetype --enable-libmp3lame --enable-libopus --enable-libtheora --enable-libvorbis --enable-libvpx --enable-libx264 --enable-libx265 --enable-nvenc --enable-libmfx --enable-libxvid --enable-libgsm --enable-libopencore-amrnb --enable-version3 --enable-nonfree
  libavutil      55. 35.100 / 55. 35.100
  libavcodec     57. 66.101 / 57. 66.101
  libavformat    57. 57.100 / 57. 57.100
  libavdevice    57.  2.100 / 57.  2.100
  libavfilter     6. 66.100 /  6. 66.100
  libswscale      4.  3.100 /  4.  3.100
  libswresample   2.  4.100 /  2.  4.100
  libpostproc    54.  2.100 / 54.  2.100
Input #0, yuv4mpegpipe, from 'Input/y4m/crowd_run_2160p50.y4m':
  Duration: 00:00:10.00, start: 0.000000, bitrate: 4976642 kb/s
    Stream #0:0: Video: rawvideo (I420 / 0x30323449), yuv420p(progressive), 3840x2160, SAR 1:1 DAR 16:9, 50 fps, 50 tbr, 50 tbn, 50 tbc
[h264_nvenc @ 0x42b01c0] The variable bitrate rate-control requires the 'qmin' and/or 'qmax' option set.
Output #0, matroska, to 'Output/NVENCh264/encoded/crowd_run_2160p50llhp3500k.mkv':
  Metadata:
    encoder         : Lavf57.57.100
    Stream #0:0: Video: h264 (h264_nvenc) (Main) (H264 / 0x34363248), yuv420p, 3840x2160 [SAR 1:1 DAR 16:9], q=-1--1, 3500 kb/s, 50 fps, 1k tbn, 50 tbc
    Metadata:
      encoder         : Lavc57.66.101 h264_nvenc
    Side data:
      cpb: bitrate max/min/avg: 0/0/3500000 buffer size: 7000000 vbv_delay: -1
Stream mapping:
  Stream #0:0 -> #0:0 (rawvideo (native) -> h264 (h264_nvenc))
Press [q] to stop, [?] for help
frame=   13 fps=0.0 q=0.0 size=       0kB time=00:00:00.00 bitrate=N/A speed=   0x    frame=   24 fps= 23 q=0.0 size=       0kB time=00:00:00.00 bitrate=N/A speed=   0x    frame=   39 fps= 25 q=49.0 size=       1kB time=00:00:00.16 bitrate=  37.1kbits/s speed=0.101x    frame=   57 fps= 27 q=49.0 size=       1kB time=00:00:00.52 bitrate=  11.5kbits/s speed=0.248x    frame=   75 fps= 29 q=49.0 size=       1kB time=00:00:00.88 bitrate=   6.8kbits/s speed=0.336x    frame=   93 fps= 30 q=49.0 size=       1kB time=00:00:01.24 bitrate=   4.8kbits/s speed=0.395x    frame=  111 fps= 30 q=49.0 size=       1kB time=00:00:01.60 bitrate=   3.7kbits/s speed=0.436x    frame=  116 fps= 21 q=49.0 size=       1kB time=00:00:01.70 bitrate=   3.5kbits/s speed=0.315x    frame=  117 fps= 13 q=49.0 size=       1kB time=00:00:01.72 bitrate=   3.5kbits/s speed=0.186x    frame=  118 fps=9.6 q=49.0 size=       1kB time=00:00:01.74 bitrate=   3.4kbits/s speed=0.141x    frame=  136 fps= 11 q=49.0 size=       1kB time=00:00:02.10 bitrate=   2.8kbits/s speed=0.163x    frame=  153 fps= 11 q=49.0 size=       1kB time=00:00:02.44 bitrate=   2.4kbits/s speed=0.183x    frame=  170 fps= 12 q=49.0 size=       1kB time=00:00:02.78 bitrate=   2.1kbits/s speed=0.201x    frame=  187 fps= 13 q=49.0 size=       1kB time=00:00:03.12 bitrate=   1.9kbits/s speed=0.217x    frame=  204 fps= 14 q=49.0 size=       1kB time=00:00:03.46 bitrate=   1.7kbits/s speed=0.232x    frame=  221 fps= 14 q=49.0 size=       1kB time=00:00:03.80 bitrate=   1.6kbits/s speed=0.247x    frame=  239 fps= 15 q=49.0 size=       1kB time=00:00:04.16 bitrate=   1.4kbits/s speed=0.261x    frame=  257 fps= 16 q=49.0 size=       1kB time=00:00:04.52 bitrate=   1.3kbits/s speed=0.275x    frame=  274 fps= 16 q=49.0 size=       1kB time=00:00:04.86 bitrate=   1.2kbits/s speed=0.287x    frame=  287 fps= 16 q=49.0 size=    3138kB time=00:00:05.12 bitrate=5020.1kbits/s speed=0.293x    frame=  305 fps= 17 q=49.0 size=    3138kB time=00:00:05.48 bitrate=4690.4kbits/s speed=0.305x    frame=  317 fps= 17 q=49.0 size=    3138kB time=00:00:05.72 bitrate=4493.6kbits/s speed=0.309x    frame=  332 fps= 17 q=49.0 size=    3138kB time=00:00:06.02 bitrate=4269.7kbits/s speed=0.314x    frame=  342 fps= 17 q=49.0 size=    3138kB time=00:00:06.22 bitrate=4132.5kbits/s speed=0.315x    frame=  360 fps= 18 q=49.0 size=    3138kB time=00:00:06.58 bitrate=3906.4kbits/s speed=0.325x    frame=  370 fps= 18 q=49.0 size=    3138kB time=00:00:06.78 bitrate=3791.2kbits/s speed=0.327x    frame=  388 fps= 18 q=49.0 size=    3138kB time=00:00:07.14 bitrate=3600.1kbits/s speed=0.336x    frame=  404 fps= 18 q=49.0 size=    3138kB time=00:00:07.46 bitrate=3445.7kbits/s speed=0.339x    frame=  420 fps= 19 q=49.0 size=    3138kB time=00:00:07.78 bitrate=3304.0kbits/s speed=0.346x    frame=  432 fps= 19 q=49.0 size=    3138kB time=00:00:08.02 bitrate=3205.1kbits/s speed=0.349x    frame=  449 fps= 19 q=49.0 size=    3138kB time=00:00:08.36 bitrate=3074.8kbits/s speed=0.353x    frame=  467 fps= 19 q=49.0 size=    3138kB time=00:00:08.72 bitrate=2947.8kbits/s speed=0.36x    frame=  485 fps= 20 q=49.0 size=    3138kB time=00:00:09.08 bitrate=2831.0kbits/s speed=0.367x    frame=  500 fps= 20 q=49.0 Lsize=    6390kB time=00:00:09.98 bitrate=5244.6kbits/s speed=0.396x    
video:6386kB audio:0kB subtitle:0kB other streams:0kB global headers:0kB muxing overhead: 0.066539%
bench: utime=1.180s
bench: maxrss=1408912kB
